<svg width="160" height="30" fill="none" xmlns="http://www.w3.org/2000/svg"><path d="M11.59 6.602l6.72 4.544c1.319.91 2.885 1.664 5.274 1.664 3.712 0 7.08-2.443 7.08-2.443L15.33 0s-1.674 1.8-6.925 5.002C2.889 8.36 0 9.34 0 9.34l19.855 13.42-.883.57-6.618-4.476c-1.318-.91-2.884-1.664-5.273-1.664C3.368 17.19 0 19.633 0 19.633L15.335 30s1.673-1.8 6.925-5.002c5.515-3.359 8.404-4.338 8.404-4.338L10.709 7.17l.882-.568z" fill="#DE0039"/><path d="M50.885 12.83c-2.91-.368-5.504-.441-5.574-1.479-.086-1.305 2.039-1.442 2.733-1.442 1.157 0 3.035.258 3.47 1.964h7.437c0-3.28-3.18-5.876-10.885-5.897-8.572-.021-10.02 3.68-10.02 5.78 0 3.897 3.09 5.045 9.778 5.734 2.48.253 4.062.248 4.062 1.459 0 1.242-1.889 1.369-2.68 1.369-.726 0-2.787.005-3.46-2.043h-8.081c.35 3.828 2.82 6.076 11.53 6.05 8.206-.022 10.358-3.28 10.358-5.771 0-2.401-1.684-4.85-8.668-5.723zm33-1.916h9.83L83.54 20.212v3.707h20.662V19.48H93.92l10.315-9.276V6.492h-20.35v4.422zM160 6.492h-6.721v17.427H160V6.492zm-16.912 0l-7.15 6.002V6.492h-6.726v17.427h6.726v-6.176l6.639 6.176h9.051l-9.842-8.935 10.159-8.492h-8.857zM75.211 13.8v2.748c0 2.143-.796 3.564-3.772 3.564-2.975 0-3.771-1.421-3.771-3.564V6.492H61.22v6.35c0 .836.017 3.648.033 5.222.021 2.243.586 6.524 10.18 6.524s10.159-4.28 10.18-6.524c.016-1.574.032-4.386.032-5.223v-6.35H75.2c.011 0 .011 7.05.011 7.309zm45.241 0v2.748c0 2.143-.796 3.564-3.772 3.564-2.975 0-3.772-1.421-3.772-3.564V6.492h-6.446v6.35c0 .836.016 3.648.032 5.222.022 2.243.587 6.524 10.181 6.524 9.593 0 10.158-4.28 10.18-6.524.016-1.574.032-4.386.032-5.223v-6.35h-6.446c.011 0 .011 7.05.011 7.309z" fill="#00368F"/></svg>